<?xml version="1.0" encoding="UTF-8"?>
<svg xmlns="http://www.w3.org/2000/svg" xmlns:xlink="http://www.w3.org/1999/xlink" width="1379px" height="1024px" viewBox="0 0 1379 1024" version="1.1">
<defs>
<filter id="alpha" filterUnits="objectBoundingBox" x="0%" y="0%" width="100%" height="100%">
  <feColorMatrix type="matrix" in="SourceGraphic" values="0 0 0 0 1 0 0 0 0 1 0 0 0 0 1 0 0 0 1 0"/>
</filter>
<mask id="mask0">
  <g filter="url(#alpha)">
<rect x="0" y="0" width="1379" height="1024" style="fill:rgb(0%,0%,0%);fill-opacity:0.8;stroke:none;"/>
  </g>
</mask>
<clipPath id="clip1">
  <rect x="0" y="0" width="1379" height="1024"/>
</clipPath>
<g id="surface5" clip-path="url(#clip1)">
<path style="fill:none;stroke-width:2;stroke-linecap:butt;stroke-linejoin:miter;stroke:rgb(42.352941%,38.823529%,100%);stroke-opacity:1;stroke-miterlimit:10;" d="M 1002.866923 620.793882 C 1002.866923 620.793882 729.664786 463.973722 612.049471 493.686735 C 612.049471 493.686735 362.782486 520.512464 333.896269 579.525068 C 333.896269 579.525068 254.659214 331.912183 225.769663 323.657087 " transform="matrix(1.171623,0,0,1.171625,-13.704378,-15.243705)"/>
</g>
<mask id="mask1">
  <g filter="url(#alpha)">
<rect x="0" y="0" width="1379" height="1024" style="fill:rgb(0%,0%,0%);fill-opacity:0.8;stroke:none;"/>
  </g>
</mask>
<clipPath id="clip2">
  <rect x="0" y="0" width="1379" height="1024"/>
</clipPath>
<g id="surface8" clip-path="url(#clip2)">
<path style="fill:none;stroke-width:2;stroke-linecap:butt;stroke-linejoin:miter;stroke:rgb(42.352941%,38.823529%,100%);stroke-opacity:1;stroke-miterlimit:10;" d="M 333.896269 579.525068 C 379.702795 457.368978 792.394955 322.006735 792.394955 322.006735 C 733.792341 336.863241 612.049471 493.686735 612.049471 493.686735 C 612.049471 493.686735 354.53071 306.323385 225.769663 323.657087 C 225.769663 323.657087 792.808377 342.22772 1002.866923 620.793882 " transform="matrix(1.171623,0,0,1.171625,-13.704378,-15.243705)"/>
</g>
</defs>
<g id="surface1">
<path style=" stroke:none;fill-rule:nonzero;fill:rgb(24.705882%,23.921569%,33.72549%);fill-opacity:1;" d="M 362.890625 291.988281 C 362.453125 288.527344 361.566406 285.140625 360.253906 281.90625 C 359.917969 280.671875 359.074219 279.636719 357.9375 279.050781 C 357.183594 278.855469 356.390625 278.847656 355.632812 279.023438 L 343.816406 280.832031 C 342.824219 280.878906 341.878906 281.246094 341.117188 281.882812 C 339.578125 283.5 341.09375 286.105469 341.046875 288.339844 C 340.996094 290.851562 338.765625 292.890625 336.34375 293.5625 C 333.875 294.0625 331.328125 294.03125 328.871094 293.472656 L 312.34375 290.902344 C 317.210938 289.347656 321.542969 286.457031 324.84375 282.5625 C 327.019531 279.984375 328.175781 275.175781 325.035156 273.953125 C 324.101562 273.699219 323.125 273.621094 322.164062 273.722656 C 314.675781 273.78125 308.785156 267.53125 301.777344 264.898438 C 292.574219 261.664062 282.335938 264.714844 276.40625 272.460938 L 285.207031 272.886719 C 286.035156 272.839844 286.855469 273.058594 287.554688 273.511719 C 289.480469 275.097656 287.082031 278.140625 287.355469 280.625 C 287.707031 283.847656 291.992188 284.535156 295.21875 284.863281 C 298.445312 285.1875 302.539062 287.8125 300.988281 290.660156 C 284.765625 296.246094 268.257812 279.738281 251.21875 281.769531 C 246.90625 282.285156 242.835938 283.976562 238.625 285.042969 C 212.90625 291.550781 186.320312 274.1875 160.046875 277.863281 C 154.207031 278.859375 148.464844 280.375 142.894531 282.390625 C 139.316406 283.5625 135.589844 284.832031 132.988281 287.554688 C 130.390625 290.277344 129.402344 294.933594 131.863281 297.78125 C 125.082031 298.339844 118.25 297.691406 111.695312 295.863281 C 115.304688 297.871094 117.535156 301.691406 117.503906 305.824219 C 106.910156 307.550781 96.597656 310.695312 86.84375 315.171875 C 88.664062 318.199219 90.792969 321.03125 93.191406 323.625 L 79.78125 332.238281 C 84.3125 333.378906 86.652344 339.558594 84.019531 343.417969 C 88.71875 341.328125 91.628906 335.921875 96.652344 334.824219 C 99.941406 334.105469 103.289062 335.453125 106.414062 336.71875 C 109.535156 337.980469 112.964844 339.207031 116.199219 338.257812 C 119.429688 337.308594 121.8125 333.121094 119.761719 330.449219 C 133.574219 326.417969 147.847656 324.1875 162.234375 323.8125 C 163.34375 323.675781 164.46875 323.886719 165.449219 324.425781 C 167.324219 325.722656 166.832031 328.527344 166.730469 330.804688 C 166.628906 333.082031 168.402344 336.074219 170.4375 335.046875 C 168.042969 337.125 170.089844 341.03125 172.386719 343.214844 C 174.683594 345.398438 177.453125 348.410156 176.046875 351.25 C 175.679688 351.992188 175.058594 352.585938 174.703125 353.332031 C 173.664062 355.539062 175.316406 358.113281 177.269531 359.582031 C 179.222656 361.046875 181.613281 362.070312 182.96875 364.101562 C 184.324219 366.132812 183.707031 369.683594 181.285156 369.96875 L 174.390625 361.21875 C 172.039062 363.660156 170.421875 366.71875 169.738281 370.039062 C 177.042969 376.015625 178.144531 388.175781 172.027344 395.363281 C 168.898438 399.035156 164.453125 401.269531 160.570312 404.132812 C 156.691406 407 153.101562 411.078125 153.109375 415.902344 C 153.125 424.234375 152.445312 431.980469 155.570312 439.707031 C 161.328125 453.953125 167.976562 467.824219 175.476562 481.234375 C 177.445312 484.757812 179.988281 488.617188 183.980469 489.226562 C 178.9375 476.949219 174.398438 464.484375 170.363281 451.828125 C 172.992188 451.839844 176.027344 452.050781 177.570312 454.179688 C 178.84375 455.941406 178.570312 458.339844 178.96875 460.480469 C 179.472656 462.550781 180.3125 464.53125 181.457031 466.332031 L 205.53125 509.21875 C 207.527344 512.773438 209.820312 516.589844 213.632812 518.027344 C 216.070312 518.949219 218.894531 518.777344 221.136719 520.101562 C 222.898438 521.140625 224.082031 522.984375 225.875 523.960938 C 230.949219 526.730469 238 521.421875 242.742188 524.726562 C 244.097656 525.671875 244.957031 527.171875 246.207031 528.253906 C 250.585938 532.042969 257.765625 529.507812 262.820312 532.335938 C 266.074219 534.160156 267.761719 537.804688 269.5 541.105469 C 273.851562 549.382812 280.894531 557.488281 290.21875 558.144531 C 293.148438 558.351562 296.140625 557.796875 299.003906 558.449219 C 301.867188 559.101562 304.683594 561.597656 304.226562 564.5 C 303.4375 569.472656 305.894531 574.917969 305.234375 579.90625 C 304.03125 589 291.136719 592.996094 290.027344 602.097656 C 289.785156 604.089844 290.167969 606.148438 289.691406 608.097656 C 289.109375 610.488281 287.3125 612.4375 286.675781 614.8125 C 285.46875 619.316406 288.695312 623.800781 292.238281 626.828125 C 295.785156 629.859375 300.011719 632.472656 301.949219 636.714844 C 304 641.199219 302.992188 646.425781 303.660156 651.308594 C 305.113281 661.972656 314.320312 669.875 323.800781 674.972656 C 326.6875 676.523438 329.789062 678.027344 331.65625 680.722656 C 334.097656 684.238281 333.851562 688.875 334.667969 693.074219 C 336.664062 703.363281 345.324219 711.839844 345.570312 722.316406 C 345.746094 729.765625 341.605469 736.519531 339.132812 743.546875 C 334.441406 757.171875 335.917969 772.160156 343.175781 784.609375 C 345.023438 787.730469 347.238281 790.675781 348.546875 794.0625 C 350.882812 800.105469 350.125 806.972656 352.277344 813.085938 C 355.125 821.164062 362.945312 827.835938 362.195312 836.367188 C 365.746094 843.742188 373.589844 847.363281 381.472656 849.558594 L 395.605469 853.492188 C 398.3125 854.246094 401.140625 855.003906 403.894531 854.460938 C 406.648438 853.914062 409.277344 851.625 409.207031 848.820312 C 402.277344 847.253906 395.125 845.59375 389.414062 841.371094 C 383.699219 837.148438 379.785156 829.628906 381.953125 822.863281 C 382.960938 819.726562 385.097656 816.101562 383.066406 813.511719 C 381.902344 812.027344 379.773438 811.640625 378.460938 810.285156 C 376.410156 808.171875 377.117188 804.625 378.585938 802.078125 C 380.058594 799.53125 382.1875 797.253906 382.78125 794.375 C 383.394531 791.074219 381.894531 787.738281 379.011719 786.011719 C 381.632812 785.023438 384.015625 783.492188 386.007812 781.523438 C 387.847656 779.421875 388.699219 776.183594 387.25 773.796875 C 391.546875 774.339844 396.621094 774.609375 399.441406 771.320312 C 401.695312 768.695312 401.539062 764.773438 400.648438 761.429688 C 399.757812 758.085938 398.253906 754.839844 398.207031 751.382812 C 408.121094 751.851562 418.054688 751.515625 427.910156 750.375 C 426.484375 745.574219 423.246094 741.515625 418.878906 739.066406 C 423.34375 738.308594 427.414062 732.964844 428.824219 728.660156 C 430.234375 724.359375 429.875 719.671875 429.003906 715.230469 C 428.667969 714.085938 428.621094 712.875 428.867188 711.710938 C 429.371094 710.105469 430.945312 709.128906 432.402344 708.292969 L 454.5625 695.566406 C 455.882812 694.902344 457.082031 694.019531 458.105469 692.949219 C 460.425781 690.222656 460.082031 686.105469 458.894531 682.726562 C 457.707031 679.347656 455.800781 676.171875 455.34375 672.621094 C 453.972656 661.996094 465.347656 654.375 469.183594 644.371094 C 470.691406 640.449219 470.996094 636.183594 471.289062 631.988281 C 471.601562 627.484375 471.625 622.253906 468.167969 619.351562 C 464.851562 616.566406 459.671875 617.1875 456.203125 614.601562 C 453.023438 612.226562 451.925781 607.621094 448.453125 605.703125 C 445.296875 603.964844 441.339844 605.070312 437.832031 604.25 C 431.652344 602.808594 427.765625 595.6875 421.453125 595.03125 C 417.894531 594.65625 413.863281 596.398438 410.945312 594.324219 C 408.375 592.496094 408.273438 588.824219 407.78125 585.710938 C 406.023438 575.789062 398.277344 568.015625 388.363281 566.226562 C 384.691406 565.636719 380.695312 565.863281 377.574219 563.84375 C 374.410156 561.800781 372.960938 557.976562 370.476562 555.148438 C 366.472656 550.589844 360.167969 548.96875 354.261719 547.582031 L 330.238281 541.933594 C 325.972656 540.929688 320.476562 540.398438 318.1875 544.136719 C 317.507812 545.558594 317.03125 547.066406 316.761719 548.617188 C 315 554.378906 309.726562 558.351562 303.703125 558.445312 C 301.691406 555.011719 298.429688 552.488281 294.597656 551.402344 C 292.164062 550.722656 289.554688 550.644531 287.230469 549.648438 C 284.675781 548.398438 282.742188 546.152344 281.894531 543.4375 C 281.042969 540.722656 281.351562 537.773438 282.742188 535.292969 C 285.589844 530.222656 284.6875 523.875 280.539062 519.796875 C 276.453125 516.128906 270.542969 515.242188 265.066406 515.609375 C 263.632812 512.480469 266.03125 508.945312 268.617188 506.671875 C 271.199219 504.398438 274.339844 502.160156 274.902344 498.761719 C 275.789062 493.417969 268.96875 489.359375 263.792969 490.953125 C 258.613281 492.546875 255.308594 497.574219 253.125 502.53125 C 251.871094 505.375 250.808594 508.371094 248.828125 510.769531 C 246.851562 513.167969 243.667969 514.886719 240.65625 514.117188 C 236.394531 513.027344 234.746094 507.960938 233.804688 503.664062 C 232.539062 497.898438 231.265625 492.050781 231.53125 486.152344 C 231.796875 480.253906 233.785156 474.199219 238.132812 470.207031 C 245.21875 463.699219 256.089844 464.335938 265.65625 465.375 C 263.394531 462.828125 263.953125 458.539062 266.371094 456.140625 C 268.964844 453.839844 272.523438 452.964844 275.886719 453.804688 C 278.769531 454.40625 281.363281 455.957031 283.257812 458.210938 C 285.976562 461.527344 286.75 466 288.804688 469.761719 C 290.855469 473.523438 295.476562 476.730469 299.257812 474.710938 C 302.523438 472.96875 303.042969 468.441406 302.230469 464.828125 C 301.417969 461.21875 299.691406 457.707031 299.984375 454.015625 C 300.546875 446.976562 307.84375 442.738281 314.285156 439.835938 C 320.726562 436.9375 328.101562 433.039062 329.121094 426.046875 C 329.15625 424.679688 329.414062 423.328125 329.886719 422.042969 C 330.601562 420.90625 331.59375 419.972656 332.769531 419.328125 C 351.566406 406.90625 370.675781 394.332031 392.160156 387.542969 C 393.28125 387.191406 393.410156 387.585938 394.550781 387.308594 C 396.144531 386.386719 395.089844 383.835938 393.558594 382.808594 C 392.03125 381.785156 389.988281 380.996094 389.601562 379.195312 C 389.316406 377.871094 390.09375 376.574219 390.296875 375.234375 C 390.792969 371.945312 386.859375 368.910156 383.804688 370.222656 C 382.078125 367.9375 385.496094 365.28125 388.253906 364.523438 C 396.546875 362.242188 405.058594 360.851562 413.644531 360.375 C 414.636719 360.21875 415.652344 360.390625 416.535156 360.867188 C 417.976562 361.867188 417.792969 364.15625 416.769531 365.582031 C 415.746094 367.007812 414.15625 367.902344 412.882812 369.109375 C 410.046875 371.875 408.988281 375.988281 410.132812 379.777344 C 414.617188 382.058594 419.488281 384.40625 424.453125 383.601562 C 429.417969 382.800781 433.824219 377.222656 431.492188 372.765625 C 429.320312 368.617188 422.789062 367.679688 421.667969 363.132812 C 420.355469 357.8125 427.890625 353.078125 426.191406 347.863281 C 425.449219 345.578125 423.171875 344.234375 421.425781 342.585938 C 417.203125 338.445312 415.960938 332.140625 418.292969 326.707031 C 412.519531 327.722656 406.613281 325.875 402.449219 321.75 C 398.660156 317.925781 395.636719 311.890625 390.253906 312.0625 C 385.316406 312.21875 381.0625 317.980469 376.445312 316.222656 C 375.308594 315.792969 374.113281 314.910156 373.011719 315.425781 C 372.28125 315.902344 371.808594 316.6875 371.730469 317.554688 C 370.558594 323.164062 372.574219 329.554688 369.519531 334.402344 C 366.191406 339.679688 358.496094 340.410156 354.460938 345.167969 C 352.269531 347.75 351.421875 351.230469 349.410156 353.953125 C 347.398438 356.675781 343.125 358.40625 340.710938 356.035156 C 343.15625 351.007812 341.804688 344.960938 337.453125 341.453125 C 335.210938 339.988281 332.792969 338.8125 330.257812 337.953125 C 327.425781 336.753906 324.730469 335.25 322.21875 333.472656 C 320.960938 332.714844 319.941406 331.621094 319.269531 330.316406 C 318.738281 328.679688 318.808594 326.910156 319.46875 325.320312 C 321.964844 318.164062 328.222656 312.980469 335.71875 311.855469 C 338.933594 311.417969 342.675781 311.574219 344.804688 309.121094 C 345.929688 307.824219 346.519531 305.867188 348.15625 305.339844 C 349.203125 305.128906 350.285156 305.261719 351.25 305.71875 L 363.253906 309.945312 C 364.59375 310.550781 366.066406 310.792969 367.53125 310.652344 C 369.035156 310.449219 370.128906 309.121094 370.035156 307.605469 C 369.652344 305.613281 366.585938 304.65625 366.863281 302.644531 C 367.019531 301.992188 367.371094 301.40625 367.871094 300.957031 C 376.640625 291.621094 389.125 286.691406 401.90625 287.515625 C 403.421875 290.003906 401.027344 292.949219 399.03125 295.074219 C 397.039062 297.199219 395.4375 300.992188 397.847656 302.628906 C 398.835938 303.132812 399.933594 303.378906 401.042969 303.347656 C 404 303.75 406.871094 304.621094 409.550781 305.929688 C 413.699219 307.734375 417.765625 309.707031 421.753906 311.855469 C 421.402344 309.222656 421.066406 306.453125 422.0625 303.996094 C 423.058594 301.535156 425.894531 299.605469 428.367188 300.5625 C 430.753906 301.488281 431.976562 304.644531 434.515625 304.933594 C 437.90625 305.320312 439.242188 300.3125 437.828125 297.210938 C 436.410156 294.105469 433.609375 291.507812 433.375 288.105469 C 433.21875 285.808594 434.089844 282.960938 432.257812 281.570312 C 431.605469 281.152344 430.863281 280.894531 430.09375 280.8125 L 384.300781 272.386719 C 381.582031 271.886719 377.652344 272.269531 377.535156 275.03125 C 377.464844 276.574219 378.84375 278.097656 378.234375 279.515625 C 377.582031 281.027344 375.445312 280.890625 373.886719 281.425781 C 371.46875 282.253906 370.253906 285.125 370.488281 287.671875 C 370.914062 290.199219 371.890625 292.605469 373.355469 294.710938 C 370.378906 293.464844 365.867188 293.234375 362.890625 291.988281 Z M 362.890625 291.988281 "/>
<path style=" stroke:none;fill-rule:nonzero;fill:rgb(24.705882%,23.921569%,33.72549%);fill-opacity:1;" d="M 326.351562 253.117188 C 320.4375 251.160156 313.929688 253.109375 310.0625 257.996094 C 309.308594 258.988281 308.675781 260.355469 309.308594 261.433594 C 310.210938 262.972656 312.519531 262.363281 314.21875 261.8125 C 316.71875 260.921875 319.4375 260.855469 321.976562 261.628906 C 323.570312 262.175781 325 263.144531 326.601562 263.671875 C 328.195312 264.335938 330.019531 264.070312 331.355469 262.976562 C 332.457031 261.855469 332.523438 260.109375 332.527344 258.539062 C 332.679688 257.472656 332.347656 256.394531 331.617188 255.605469 C 330.976562 255.234375 330.253906 255.019531 329.511719 254.984375 C 327.855469 254.675781 326.355469 253.800781 325.273438 252.503906 "/>
<path style=" stroke:none;fill-rule:nonzero;fill:rgb(24.705882%,23.921569%,33.72549%);fill-opacity:1;" d="M 342.863281 248.519531 C 341.550781 248.449219 340.292969 249.066406 339.546875 250.152344 C 338.804688 251.238281 338.679688 252.632812 339.21875 253.832031 C 341.203125 254.375 343.277344 254.507812 345.3125 254.230469 C 347.390625 253.90625 349.074219 252.367188 349.574219 250.324219 C 347.175781 250.761719 344.699219 250.289062 342.628906 248.996094 "/>
<path style=" stroke:none;fill-rule:nonzero;fill:rgb(24.705882%,23.921569%,33.72549%);fill-opacity:1;" d="M 398.261719 240.84375 C 392.859375 241.992188 387.613281 243.773438 382.628906 246.152344 C 387.453125 248.007812 390.496094 252.796875 390.128906 257.949219 C 389.921875 258.914062 389.945312 259.914062 390.203125 260.867188 C 390.777344 262.257812 392.441406 262.78125 393.902344 263.136719 C 396.53125 263.9375 399.273438 264.289062 402.019531 264.171875 C 404.808594 264.027344 407.332031 262.484375 408.734375 260.066406 C 409.132812 258.941406 409.601562 257.835938 410.132812 256.765625 C 413.636719 251.425781 424.054688 257.882812 427.816406 252.722656 C 429.144531 250.902344 429.023438 248.167969 430.75 246.726562 C 431.644531 246.101562 432.679688 245.703125 433.765625 245.578125 C 441.335938 244.074219 448.980469 242.984375 456.667969 242.316406 C 460.3125 241.996094 465.058594 240.691406 465.089844 237.035156 C 451.367188 234.339844 437.140625 236.253906 424.621094 242.476562 C 420.109375 244.738281 414.144531 249.488281 409.796875 246.496094 C 408.171875 245.371094 408.25 242.351562 406.011719 241.089844 C 403.722656 239.800781 400.691406 240.328125 398.261719 240.84375 Z M 398.261719 240.84375 "/>
<path style=" stroke:none;fill-rule:nonzero;fill:rgb(24.705882%,23.921569%,33.72549%);fill-opacity:1;" d="M 443.132812 249.234375 L 449.574219 250.472656 C 447.175781 250.367188 444.847656 251.296875 443.183594 253.027344 C 441.523438 254.761719 440.683594 257.125 440.890625 259.515625 C 446.921875 261.53125 453.496094 259.570312 459.851562 259.839844 C 466.203125 260.105469 473.597656 264.644531 472.511719 270.910156 C 472.183594 272.804688 471.089844 274.699219 471.65625 276.535156 C 472.058594 277.824219 473.191406 278.738281 473.832031 279.921875 C 475.167969 282.394531 474.101562 285.519531 472.414062 287.765625 C 470.730469 290.007812 468.460938 291.800781 466.984375 294.1875 C 463.300781 300.125 465.394531 307.796875 467.585938 314.429688 C 468.21875 316.9375 469.390625 319.273438 471.015625 321.28125 C 474.265625 324.738281 479.558594 325.039062 484.300781 325.105469 C 487.753906 325.15625 491.707031 324.988281 493.886719 322.3125 C 496.738281 318.820312 494.746094 313.375 496.621094 309.277344 C 498.324219 305.558594 502.664062 303.960938 506.597656 302.828125 C 513.800781 300.753906 521.144531 298.992188 527.953125 295.859375 C 536.414062 291.96875 544.316406 285.90625 553.613281 285.40625 C 556.21875 285.265625 558.894531 285.574219 561.40625 284.859375 C 563.917969 284.144531 566.304688 281.972656 566.113281 279.367188 C 565.949219 277.140625 564.066406 275.507812 562.597656 273.832031 C 561.125 272.152344 559.96875 269.574219 561.320312 267.796875 L 585.6875 263.246094 C 583.960938 258.539062 582.613281 252.339844 586.582031 249.277344 C 588.015625 248.171875 589.933594 247.730469 591.152344 246.394531 C 593.230469 244.113281 592.183594 240.191406 589.785156 238.253906 C 587.386719 236.316406 584.144531 235.867188 581.070312 235.613281 C 570.386719 234.726562 559.644531 235.3125 548.9375 235.898438 C 528.011719 237.046875 507.089844 238.191406 486.164062 239.339844 C 481.949219 239.570312 477.085938 239.21875 473.222656 240.652344 C 469.953125 241.871094 467.628906 244.105469 463.886719 244.890625 C 456.980469 246.335938 449.382812 245.355469 443.132812 249.234375 Z M 443.132812 249.234375 "/>
<path style=" stroke:none;fill-rule:nonzero;fill:rgb(24.705882%,23.921569%,33.72549%);fill-opacity:1;" d="M 558.519531 300.144531 C 557.863281 300.042969 557.191406 300.195312 556.644531 300.570312 C 556.285156 300.96875 556.066406 301.480469 556.035156 302.015625 C 555.621094 304.386719 556.113281 306.828125 557.421875 308.847656 C 558.777344 310.867188 561.125 311.992188 563.546875 311.785156 C 566.445312 311.417969 568.585938 308.941406 571.25 307.734375 C 575.359375 305.875 592.8125 302.976562 580.738281 296.453125 C 576.578125 294.207031 573.890625 296.191406 570.613281 297.671875 C 566.882812 299.582031 562.699219 300.433594 558.519531 300.144531 Z M 558.519531 300.144531 "/>
<path style=" stroke:none;fill-rule:nonzero;fill:rgb(24.705882%,23.921569%,33.72549%);fill-opacity:1;" d="M 664.257812 245.550781 C 662.847656 246.128906 661.671875 247.15625 660.90625 248.472656 C 660.171875 249.859375 660.660156 251.578125 662.011719 252.378906 C 662.535156 252.570312 663.09375 252.660156 663.652344 252.640625 L 669.386719 252.8125 C 671.820312 252.882812 674.863281 253.402344 675.515625 255.75 C 676.003906 257.492188 674.914062 259.730469 676.226562 260.976562 C 676.789062 261.410156 677.46875 261.675781 678.175781 261.734375 C 680.066406 262.21875 682.035156 262.285156 683.953125 261.921875 C 688.121094 260.804688 685.929688 258.257812 687.246094 255.992188 C 689.253906 252.523438 688.90625 254.621094 692.449219 252.636719 C 695.0625 251.167969 698.441406 248.503906 696.261719 244.765625 C 692.464844 238.257812 669.859375 242.757812 664.257812 245.550781 Z M 664.257812 245.550781 "/>
<path style=" stroke:none;fill-rule:nonzero;fill:rgb(24.705882%,23.921569%,33.72549%);fill-opacity:1;" d="M 777.390625 242.28125 L 774.0625 242.726562 C 766.554688 243.726562 759.007812 244.738281 751.78125 246.992188 C 754.910156 248.230469 758.191406 249.035156 761.539062 249.386719 C 763.378906 249.476562 765.210938 249.738281 767.003906 250.164062 C 770.195312 251.113281 773.414062 253.566406 776.5 252.3125 C 778.410156 251.53125 779.035156 249.539062 780.621094 248.484375 C 781.714844 247.753906 785.863281 246.578125 786.328125 245.839844 C 790.078125 239.894531 780.273438 241.898438 777.390625 242.28125 Z M 777.390625 242.28125 "/>
<path style=" stroke:none;fill-rule:nonzero;fill:rgb(24.705882%,23.921569%,33.72549%);fill-opacity:1;" d="M 792.003906 257.410156 C 787.558594 259.894531 783.433594 262.914062 779.722656 266.402344 C 778.15625 267.875 776.5625 269.703125 776.703125 271.84375 C 776.890625 274.6875 779.921875 276.339844 782.550781 277.453125 L 793.191406 281.957031 C 794.480469 280.136719 793.300781 277.625 791.964844 275.839844 C 790.632812 274.050781 789.046875 271.984375 789.636719 269.832031 C 790.308594 267.375 793.300781 266.539062 795.8125 266.117188 C 799.902344 265.425781 810.933594 265.484375 809.609375 258.890625 C 808.046875 251.125 796.109375 255.113281 792.003906 257.410156 Z M 792.003906 257.410156 "/>
<path style=" stroke:none;fill-rule:nonzero;fill:rgb(24.705882%,23.921569%,33.72549%);fill-opacity:1;" d="M 789.863281 696.917969 C 788.851562 699.847656 788.753906 703.304688 790.507812 705.863281 C 792.472656 708.738281 796.410156 709.808594 799.8125 709.078125 C 803.203125 708.175781 806.222656 706.234375 808.453125 703.523438 C 810.488281 701.253906 812.164062 698.683594 813.421875 695.90625 C 815.171875 691.574219 816.410156 687.050781 817.105469 682.429688 L 820.40625 665.082031 C 821.144531 661.207031 821.117188 649.324219 813.992188 653.195312 C 812.046875 654.253906 807.539062 662.605469 805.5 664.972656 C 801.824219 669.242188 801.335938 673.382812 799.402344 678.554688 C 796.976562 685.03125 792.105469 690.429688 789.863281 696.917969 Z M 789.863281 696.917969 "/>
<path style=" stroke:none;fill-rule:nonzero;fill:rgb(24.705882%,23.921569%,33.72549%);fill-opacity:1;" d="M 1166.167969 785.675781 C 1163.835938 784.765625 1161.574219 783.6875 1159.398438 782.453125 C 1157.214844 788.453125 1156.054688 794.773438 1155.964844 801.15625 L 1171.917969 792.128906 C 1174.320312 790.773438 1177.039062 788.886719 1176.988281 786.128906 C 1177.03125 785.433594 1176.691406 784.773438 1176.105469 784.402344 C 1175.75 784.261719 1175.363281 784.214844 1174.988281 784.269531 C 1172.621094 784.46875 1170.464844 785.632812 1168.234375 786.441406 C 1166.003906 787.25 1163.394531 787.679688 1161.34375 786.476562 "/>
<path style=" stroke:none;fill-rule:nonzero;fill:rgb(24.705882%,23.921569%,33.72549%);fill-opacity:1;" d="M 1250.324219 791.035156 C 1248.570312 791.511719 1246.859375 792.125 1245.207031 792.871094 C 1241.546875 794.734375 1239.054688 798.273438 1235.761719 800.726562 C 1232.609375 803.074219 1228.8125 804.363281 1225.089844 805.613281 C 1223.992188 806.582031 1224.496094 808.535156 1225.683594 809.386719 C 1226.964844 810.113281 1228.429688 810.441406 1229.898438 810.332031 C 1233.769531 810.417969 1237.847656 810.457031 1241.238281 808.585938 C 1243.148438 807.347656 1244.933594 805.929688 1246.574219 804.347656 C 1250.539062 801.042969 1255.296875 798.859375 1260.011719 796.75 C 1261.726562 796.105469 1263.3125 795.15625 1264.691406 793.953125 C 1267.652344 791.035156 1267.863281 786.535156 1263.59375 785.542969 C 1260.144531 784.738281 1253.605469 789.972656 1250.324219 791.035156 Z M 1250.324219 791.035156 "/>
<path style=" stroke:none;fill-rule:nonzero;fill:rgb(24.705882%,23.921569%,33.72549%);fill-opacity:1;" d="M 1287.503906 766.746094 C 1287.894531 762.679688 1286.394531 758.660156 1283.433594 755.84375 C 1283.390625 759.859375 1283.269531 764.136719 1281.007812 767.457031 C 1279.398438 769.824219 1276.878906 771.421875 1275.113281 773.675781 C 1273.351562 775.929688 1272.566406 779.503906 1274.636719 781.480469 C 1275.957031 782.484375 1277.566406 783.039062 1279.230469 783.0625 C 1283.347656 783.546875 1288.109375 783.816406 1291 780.84375 C 1292.574219 779.21875 1293.339844 776.816406 1295.261719 775.621094 C 1295.980469 775.320312 1296.617188 774.863281 1297.132812 774.28125 C 1297.929688 773.019531 1296.667969 771.359375 1295.246094 770.902344 C 1293.828125 770.449219 1292.261719 770.664062 1290.835938 770.230469 C 1289.410156 769.800781 1288.101562 768.195312 1288.832031 766.898438 "/>
<path style=" stroke:none;fill-rule:nonzero;fill:rgb(24.705882%,23.921569%,33.72549%);fill-opacity:1;" d="M 1221.421875 619.507812 C 1219.261719 620.03125 1217.023438 620.164062 1214.816406 619.898438 C 1211.152344 619.222656 1208.300781 616.460938 1205.339844 614.195312 C 1198.308594 608.839844 1189.757812 605.851562 1180.917969 605.664062 C 1172.878906 605.511719 1164.761719 607.6875 1156.863281 606.167969 C 1157.382812 609.039062 1159.835938 611.191406 1162.457031 612.46875 C 1165.078125 613.75 1167.96875 614.394531 1170.601562 615.648438 C 1174.816406 617.671875 1178.160156 621.152344 1180.019531 625.445312 C 1180.867188 627.425781 1181.402344 629.578125 1182.683594 631.304688 C 1185.308594 634.839844 1190.285156 635.613281 1194.675781 635.324219 C 1200.402344 634.949219 1206.382812 633.300781 1211.710938 635.433594 C 1215.785156 637.066406 1218.699219 640.632812 1222.101562 643.40625 C 1225.503906 646.179688 1230.296875 648.238281 1234.203125 646.238281 C 1225.875 643.539062 1220.265625 635.742188 1220.363281 626.988281 C 1224.195312 627.339844 1235.230469 627.203125 1234.636719 620.691406 C 1234.132812 615.175781 1224.710938 618.910156 1221.421875 619.507812 Z M 1221.421875 619.507812 "/>
<path style=" stroke:none;fill-rule:nonzero;fill:rgb(24.705882%,23.921569%,33.72549%);fill-opacity:1;" d="M 1171.292969 664.402344 C 1171.976562 660.667969 1175.695312 657.375 1174.535156 653.761719 C 1173.734375 651.265625 1170.839844 650.03125 1168.21875 649.96875 C 1165.59375 649.910156 1163.019531 650.691406 1160.394531 650.761719 C 1158.691406 650.671875 1156.980469 650.695312 1155.277344 650.835938 C 1150.070312 651.691406 1146.863281 657.148438 1141.957031 659.085938 C 1138.976562 660.265625 1135.625 660.042969 1132.523438 660.855469 C 1125.480469 662.707031 1121.027344 669.359375 1116.101562 674.726562 C 1108.148438 683.355469 1097.789062 689.398438 1086.363281 692.070312 C 1082.359375 692.996094 1078.054688 693.589844 1074.875 696.191406 C 1070.660156 699.632812 1069.621094 705.535156 1068.683594 710.898438 C 1066.09375 725.703125 1062.136719 740.234375 1056.859375 754.308594 L 1073.578125 756.441406 C 1076.757812 756.847656 1080.050781 757.246094 1083.113281 756.304688 C 1085.339844 755.464844 1087.449219 754.339844 1089.386719 752.960938 C 1096.832031 748.339844 1105.167969 745.332031 1113.847656 744.132812 C 1118.226562 743.53125 1122.816406 743.421875 1126.925781 745.046875 C 1131.035156 746.675781 1134.558594 750.367188 1134.90625 754.773438 C 1138.523438 753.644531 1142.472656 754.605469 1145.171875 757.269531 C 1147.789062 759.9375 1149.503906 763.359375 1150.070312 767.054688 C 1150.511719 769.339844 1150.953125 772.082031 1153.074219 773.039062 C 1154.808594 773.824219 1156.792969 772.980469 1158.6875 772.828125 C 1165.117188 772.316406 1170.449219 779.808594 1176.769531 778.519531 C 1183.542969 777.136719 1185.207031 766.988281 1191.820312 764.953125 C 1195.617188 763.785156 1200.941406 765.207031 1202.757812 761.675781 C 1204.363281 758.5625 1201.164062 754.96875 1201.492188 751.484375 C 1201.898438 747.191406 1206.960938 745.371094 1210.863281 743.539062 C 1224.320312 737.226562 1230.703125 719.117188 1224.183594 705.761719 C 1220.320312 697.847656 1212.722656 691.617188 1211.316406 682.925781 C 1210.238281 676.234375 1212.875 668.4375 1208.609375 663.171875 C 1206.441406 660.492188 1202.765625 659.015625 1201.476562 655.820312 C 1200.664062 653.808594 1200.988281 651.527344 1200.554688 649.402344 C 1200.117188 647.277344 1198.261719 645.054688 1196.164062 645.605469 C 1190.074219 647.203125 1188.128906 666.019531 1184.867188 670.589844 C 1179.910156 677.539062 1169.734375 672.964844 1171.292969 664.402344 Z M 1171.292969 664.402344 "/>
<path style=" stroke:none;fill-rule:nonzero;fill:rgb(24.705882%,23.921569%,33.72549%);fill-opacity:1;" d="M 1058.707031 626.617188 C 1056.625 626.035156 1054.355469 625.457031 1052.359375 626.292969 C 1050.363281 627.125 1049.199219 630.054688 1050.800781 631.507812 C 1063.324219 631.019531 1075.921875 630.535156 1088.339844 632.234375 C 1102.644531 634.195312 1116.804688 639.050781 1131.171875 637.621094 C 1122.964844 635.199219 1114.621094 633.265625 1106.183594 631.824219 L 1092.117188 629.136719 C 1088.34375 628.347656 1084.53125 627.757812 1080.695312 627.371094 C 1072.671875 626.707031 1066.597656 628.828125 1058.707031 626.617188 Z M 1058.707031 626.617188 "/>
<path style=" stroke:none;fill-rule:nonzero;fill:rgb(24.705882%,23.921569%,33.72549%);fill-opacity:1;" d="M 1071.246094 583.003906 C 1070.207031 582.914062 1068.917969 582.839844 1068.378906 583.734375 C 1067.867188 584.589844 1068.453125 585.71875 1068.179688 586.675781 C 1067.800781 587.984375 1066.085938 588.316406 1064.738281 588.140625 C 1063.386719 587.960938 1061.925781 587.535156 1060.730469 588.183594 C 1059.484375 589.035156 1058.949219 590.609375 1059.417969 592.042969 C 1059.90625 593.429688 1060.699219 594.6875 1061.734375 595.734375 C 1063.503906 597.960938 1065.519531 599.984375 1067.742188 601.757812 C 1072.046875 604.9375 1077.875 606.46875 1080.585938 611.078125 C 1080.96875 611.972656 1081.558594 612.765625 1082.304688 613.386719 C 1083.605469 614.210938 1085.300781 613.585938 1086.703125 612.945312 L 1091.613281 610.699219 C 1092.5 610.382812 1093.289062 609.84375 1093.910156 609.140625 C 1095.03125 607.617188 1094.34375 605.453125 1093.402344 603.8125 C 1092.460938 602.171875 1091.253906 600.472656 1091.457031 598.59375 C 1091.816406 595.242188 1096.128906 593.957031 1097.898438 591.089844 C 1099.6875 588.199219 1098.523438 584.472656 1098.730469 581.078125 C 1098.96875 577.113281 1101.464844 571.949219 1097.453125 568.984375 C 1094.042969 566.464844 1090.785156 568.792969 1088.335938 571.574219 C 1083.175781 577.441406 1080.734375 583.792969 1071.246094 583.003906 Z M 1071.246094 583.003906 "/>
<path style=" stroke:none;fill-rule:nonzero;fill:rgb(24.705882%,23.921569%,33.72549%);fill-opacity:1;" d="M 1101.058594 523.714844 C 1102.734375 526.925781 1106.230469 528.839844 1108.058594 531.96875 C 1110.039062 535.355469 1109.816406 539.734375 1111.964844 543.019531 C 1114.171875 546.390625 1118.609375 548.179688 1119.847656 552.011719 C 1121.199219 556.199219 1118.132812 561.285156 1120.574219 564.941406 C 1121.496094 566.148438 1122.882812 566.917969 1124.394531 567.054688 C 1125.910156 567.195312 1127.410156 566.691406 1128.535156 565.671875 C 1130.679688 563.339844 1130.570312 559.726562 1128.296875 557.527344 C 1126.847656 556.207031 1124.773438 555.636719 1123.566406 554.097656 C 1122.9375 553.207031 1122.515625 552.1875 1122.339844 551.113281 C 1121.679688 548.015625 1121.785156 544.800781 1122.648438 541.753906 C 1122.96875 540.980469 1123.050781 540.125 1122.882812 539.304688 C 1122.339844 537.722656 1120.199219 537.613281 1118.695312 536.878906 C 1115.285156 535.214844 1115.367188 530.402344 1115.964844 526.652344 C 1115.566406 529.148438 1106.679688 524.902344 1105.746094 523.488281 C 1103.898438 520.683594 1104.90625 515.265625 1104.539062 512.160156 C 1100.546875 514.085938 1099.007812 519.789062 1101.058594 523.714844 Z M 1101.058594 523.714844 "/>
<path style=" stroke:none;fill-rule:nonzero;fill:rgb(24.705882%,23.921569%,33.72549%);fill-opacity:1;" d="M 1011.503906 573.113281 C 1009.863281 571.277344 1007.390625 569.355469 1005.191406 570.460938 C 1003.511719 571.308594 1003.050781 573.628906 1003.707031 575.390625 C 1004.511719 577.097656 1005.742188 578.570312 1007.289062 579.65625 C 1011.871094 583.4375 1016.808594 586.847656 1020.808594 591.242188 C 1027.964844 599.109375 1031.753906 609.71875 1039.539062 616.964844 C 1041.101562 618.644531 1043.175781 619.765625 1045.4375 620.15625 C 1047.703125 620.367188 1050.25 618.917969 1050.511719 616.65625 C 1050.726562 614.792969 1049.425781 613.125 1048.15625 611.742188 C 1045.132812 608.453125 1041.824219 605.425781 1038.96875 601.988281 C 1037.652344 600.671875 1036.820312 598.941406 1036.621094 597.085938 C 1036.605469 595.234375 1038.292969 593.296875 1040.085938 593.757812 C 1037.90625 593.199219 1036.289062 589.566406 1033.089844 588.882812 C 1030.414062 588.3125 1029.769531 589.96875 1026.585938 588.605469 C 1020.515625 586 1015.753906 577.871094 1011.503906 573.113281 Z M 1011.503906 573.113281 "/>
<path style=" stroke:none;fill-rule:nonzero;fill:rgb(24.705882%,23.921569%,33.72549%);fill-opacity:1;" d="M 1154.125 394.269531 C 1152.386719 393.75 1150.671875 393.140625 1149 392.4375 C 1144.492188 391.082031 1138.527344 394.394531 1139.128906 399.0625 C 1139.527344 402.164062 1142.414062 404.253906 1144.007812 406.945312 C 1146.371094 410.933594 1145.742188 415.992188 1144.5 420.457031 C 1144.195312 421.839844 1143.613281 423.148438 1142.792969 424.304688 C 1141.648438 425.523438 1140.277344 426.507812 1138.757812 427.207031 C 1132.667969 430.621094 1127.300781 435.179688 1122.949219 440.636719 C 1122.476562 441.140625 1122.148438 441.761719 1121.996094 442.433594 C 1121.78125 444.011719 1123.367188 445.160156 1124.261719 446.472656 C 1126.25 449.390625 1124.8125 453.320312 1125.007812 456.847656 C 1124.949219 457.863281 1125.414062 458.835938 1126.246094 459.421875 C 1127.445312 460.03125 1128.863281 458.996094 1129.515625 457.820312 C 1131.671875 453.910156 1130.046875 447.640625 1134.089844 445.757812 C 1134.855469 445.398438 1135.785156 445.25 1136.296875 444.578125 C 1137.105469 443.511719 1136.324219 441.933594 1136.734375 440.65625 C 1137.351562 438.742188 1139.96875 438.65625 1141.976562 438.742188 C 1145.4375 438.886719 1148.894531 438.425781 1152.199219 437.382812 C 1153.492188 437.074219 1154.671875 436.390625 1155.582031 435.421875 C 1156.792969 433.914062 1156.683594 431.765625 1156.441406 429.847656 C 1155.230469 420.28125 1152.203125 411.035156 1147.515625 402.609375 C 1151.070312 403.0625 1154.933594 403.457031 1158 401.601562 C 1159.71875 400.566406 1161.777344 397.464844 1160.925781 395.355469 C 1159.578125 392.015625 1157.148438 394.824219 1154.125 394.269531 Z M 1154.125 394.269531 "/>
<path style=" stroke:none;fill-rule:nonzero;fill:rgb(24.705882%,23.921569%,33.72549%);fill-opacity:1;" d="M 698.542969 446.882812 C 698.96875 449.164062 699.386719 451.5625 698.636719 453.761719 C 697.890625 455.957031 695.539062 457.792969 693.320312 457.121094 C 691.59375 456.597656 690.601562 454.863281 689.375 453.542969 C 682.570312 446.195312 667.21875 450.449219 663.015625 441.363281 C 661.296875 437.652344 662.464844 433.207031 661.292969 429.292969 C 659.777344 424.636719 655.300781 421.597656 650.414062 421.902344 C 648.25 422.214844 646.140625 422.84375 644.15625 423.769531 C 630.863281 429.09375 616.910156 432.582031 602.679688 434.144531 C 599.972656 434.308594 597.296875 434.796875 594.707031 435.59375 C 588.863281 437.714844 584.871094 443.132812 582.03125 448.660156 C 579.1875 454.1875 577.089844 460.171875 573.28125 465.085938 C 569.277344 470.246094 563.667969 473.863281 558.433594 477.773438 C 556.417969 479.070312 554.738281 480.832031 553.535156 482.90625 C 552.402344 485.234375 552.464844 487.945312 552.554688 490.535156 L 553.621094 521.984375 C 553.761719 526.03125 553.933594 530.21875 555.742188 533.839844 C 558.003906 538.359375 562.46875 541.320312 565.570312 545.316406 C 568.730469 549.417969 570.378906 554.488281 570.230469 559.667969 C 570.164062 561.75 569.957031 564.210938 571.582031 565.519531 C 572.566406 566.160156 573.722656 566.492188 574.898438 566.472656 L 617.441406 569.957031 C 624.921875 570.570312 633.21875 571.574219 638.101562 577.277344 C 640.410156 579.96875 642.261719 583.835938 645.792969 584.125 C 647.308594 584.25 648.78125 583.628906 650.296875 583.507812 C 654.121094 583.207031 657.480469 586.105469 659.597656 589.304688 C 662.808594 594.175781 664.261719 599.992188 663.730469 605.800781 C 663.382812 609.445312 662.25 612.992188 662.007812 616.644531 C 661.078125 630.550781 672.867188 642.628906 673.09375 656.5625 C 673.230469 664.757812 669.339844 672.417969 665.546875 679.683594 C 671.667969 688.957031 666.65625 701.308594 669.09375 712.148438 C 671.40625 722.4375 679.980469 730.488281 682.117188 740.8125 C 683.097656 745.539062 683.152344 751.355469 687.320312 753.789062 C 689.148438 754.683594 691.175781 755.089844 693.207031 754.96875 C 705.460938 755.113281 717.570312 752.359375 728.550781 746.921875 C 733.703125 744.367188 739.046875 740.546875 739.945312 734.867188 C 740.671875 730.285156 738.347656 725.15625 740.710938 721.167969 C 743.5 716.460938 750.640625 716.835938 754.742188 713.21875 C 761.394531 707.351562 756.207031 696.160156 758.902344 687.707031 C 761.324219 680.109375 769.664062 676.074219 773.800781 669.257812 C 775.425781 666.324219 776.59375 663.160156 777.261719 659.875 C 779.15625 652.019531 780.335938 644.007812 780.785156 635.941406 C 780.894531 631.039062 781.257812 626.148438 781.867188 621.28125 C 786.324219 593.589844 813.703125 575.042969 822.59375 548.4375 C 823.441406 545.898438 823.839844 542.511719 821.582031 541.074219 C 820.238281 540.433594 818.71875 540.277344 817.277344 540.625 L 797.664062 543.097656 C 795.230469 543.402344 792.648438 543.691406 790.410156 542.679688 C 788.171875 541.667969 786.570312 538.835938 787.753906 536.6875 C 791.085938 530.65625 784.234375 523.03125 781.191406 516.847656 C 772.992188 500.199219 763.230469 484.367188 752.035156 469.5625 C 751.320312 468.804688 750.871094 467.828125 750.757812 466.789062 L 756.324219 466.972656 C 754.445312 460.230469 751.34375 452.855469 744.792969 450.386719 C 741.101562 449 737.015625 449.480469 733.078125 449.695312 C 721.796875 450.3125 709.707031 448.609375 698.542969 446.882812 Z M 698.542969 446.882812 "/>
<path style=" stroke:none;fill-rule:nonzero;fill:rgb(24.705882%,23.921569%,33.72549%);fill-opacity:1;" d="M 733.085938 294.949219 C 736.039062 298.085938 739.347656 301.40625 743.617188 301.953125 C 751.160156 302.917969 756.582031 295.117188 760.035156 288.34375 C 760.300781 291.933594 763.378906 294.664062 766.976562 294.496094 C 768.835938 294.183594 770.613281 293.488281 772.195312 292.457031 C 787.140625 284.289062 803.878906 279.960938 820.910156 279.863281 C 820.570312 277.191406 822.304688 274.695312 824.925781 274.078125 C 828.390625 273.390625 831.507812 276.386719 833.179688 279.496094 C 834.847656 282.605469 835.890625 286.210938 838.542969 288.539062 C 841.199219 290.867188 846.335938 290.765625 847.386719 287.394531 C 848.390625 284.15625 845.019531 281.398438 842.21875 279.488281 C 839.417969 277.582031 836.464844 274.050781 838.351562 271.234375 C 852.660156 268.066406 867.058594 264.886719 881.703125 264.257812 C 884.195312 264.34375 886.679688 263.917969 889 263 C 891.230469 261.90625 893.007812 259.417969 892.40625 257.003906 C 885.871094 258.539062 879.054688 255.96875 875.160156 250.5 C 895.480469 248.824219 917.089844 247.394531 935.09375 256.953125 C 937.253906 261.59375 926.242188 265.453125 929.1875 269.636719 C 930.128906 270.96875 932.011719 271.125 933.644531 271.15625 C 946.15625 271.390625 958.742188 271.617188 971.113281 269.726562 C 975.632812 269.039062 980.199219 268.0625 984.738281 268.621094 C 992.296875 269.554688 998.765625 274.597656 1006.203125 276.246094 C 1009.230469 276.914062 1012.625 276.9375 1015.175781 275.175781 C 1017.726562 273.414062 1018.824219 269.40625 1016.734375 267.117188 C 1023.734375 260.253906 1035.359375 261.953125 1044.597656 265.238281 C 1053.835938 268.527344 1062.589844 273.824219 1072.367188 274.558594 C 1079.378906 275.082031 1086.488281 273.195312 1093.414062 274.394531 C 1097.769531 275.148438 1101.820312 277.085938 1106.078125 278.277344 C 1114.125 280.527344 1122.640625 280.050781 1130.996094 280.160156 C 1152.316406 280.445312 1173.40625 284.636719 1193.214844 292.523438 C 1195.792969 293.363281 1198.152344 294.757812 1200.132812 296.609375 C 1201.976562 298.582031 1202.914062 301.652344 1201.675781 304.050781 L 1181.207031 301.058594 C 1183.132812 304.855469 1188.125 305.503906 1192.175781 306.8125 C 1196.230469 308.125 1200.429688 312.597656 1197.996094 316.09375 C 1193.605469 314.695312 1189.625 319.085938 1187.40625 323.125 C 1185.191406 327.164062 1182.488281 332 1177.886719 332.246094 C 1173.765625 332.464844 1168.78125 328.957031 1166.097656 332.089844 C 1169.808594 336.769531 1172.984375 341.851562 1175.570312 347.234375 C 1178.222656 352.761719 1180.113281 359.730469 1176.527344 364.703125 C 1175.960938 365.589844 1175.105469 366.253906 1174.105469 366.578125 C 1171.175781 367.320312 1169.273438 363.738281 1167.171875 361.566406 C 1164.527344 358.828125 1160.523438 358.054688 1156.9375 356.769531 C 1153.355469 355.488281 1149.578125 352.960938 1149.296875 349.164062 C 1149.125 346.804688 1150.371094 344.605469 1151.289062 342.421875 C 1152.835938 338.742188 1153.507812 334.757812 1153.265625 330.773438 C 1153.0625 327.570312 1152.164062 324.234375 1149.863281 321.996094 C 1147.5625 319.757812 1143.585938 319.046875 1141.117188 321.097656 C 1139.964844 322.054688 1139.039062 323.585938 1137.542969 323.640625 C 1134.898438 323.742188 1132.867188 319.132812 1130.738281 320.707031 C 1130.988281 322.382812 1130.640625 324.09375 1129.753906 325.542969 C 1123.40625 331.066406 1113.648438 328.730469 1105.460938 330.679688 C 1101.566406 331.792969 1097.839844 333.421875 1094.375 335.519531 C 1093.082031 336.074219 1091.976562 337 1091.207031 338.179688 C 1090.1875 340.167969 1091.3125 342.710938 1093.113281 344.03125 C 1095.023438 345.203125 1097.171875 345.933594 1099.398438 346.175781 C 1109.382812 348.066406 1119.507812 350.992188 1127.386719 357.402344 C 1135.269531 363.816406 1140.4375 374.414062 1137.941406 384.261719 L 1118.257812 365.453125 C 1119.007812 373.351562 1119.429688 381.269531 1119.53125 389.210938 C 1119.660156 390.761719 1119.445312 392.320312 1118.90625 393.78125 C 1117.503906 396.878906 1113.703125 397.921875 1110.367188 398.605469 C 1108.492188 398.964844 1106.859375 400.101562 1105.878906 401.742188 C 1104.898438 403.378906 1104.664062 405.355469 1105.234375 407.175781 C 1106.417969 411.035156 1109.371094 414.046875 1112.074219 417.042969 C 1114.777344 420.042969 1117.4375 423.449219 1117.792969 427.472656 C 1118.144531 431.492188 1115.109375 436.027344 1111.082031 435.746094 C 1108.03125 435.535156 1105.765625 432.800781 1104.464844 430.03125 C 1103.160156 427.261719 1102.386719 424.179688 1100.429688 421.824219 C 1094.507812 414.703125 1081.203125 417.753906 1075.898438 410.160156 C 1073.148438 413.277344 1072.210938 417.597656 1073.417969 421.578125 C 1075.886719 420.03125 1079.265625 421.46875 1081.117188 423.714844 C 1082.972656 425.960938 1083.847656 428.835938 1085.304688 431.359375 C 1087.269531 434.761719 1090.398438 437.777344 1090.671875 441.699219 C 1090.597656 443.179688 1090.625 444.667969 1090.746094 446.144531 C 1091.234375 448.519531 1093.242188 450.226562 1094.632812 452.210938 C 1097.871094 456.832031 1097.710938 463.175781 1095.625 468.417969 C 1093.535156 473.660156 1089.785156 478.039062 1086.070312 482.285156 C 1079.582031 489.699219 1072.964844 497.074219 1065.269531 503.234375 C 1063.078125 504.988281 1060.734375 506.71875 1059.367188 509.175781 C 1058 511.632812 1057.929688 515.082031 1060.03125 516.949219 C 1058.527344 517.023438 1055.832031 517.765625 1054.328125 517.839844 C 1053.800781 511.808594 1053.683594 505.75 1053.984375 499.707031 C 1048.054688 496.859375 1041.667969 504.484375 1042.433594 511.019531 C 1043.199219 517.554688 1047.925781 522.800781 1051.289062 528.453125 C 1053.75 532.589844 1055.578125 537.410156 1054.757812 542.152344 C 1053.9375 546.890625 1049.703125 551.265625 1044.910156 550.847656 C 1037.285156 550.183594 1034.097656 539.238281 1026.546875 537.984375 C 1025.882812 537.828125 1025.183594 537.898438 1024.558594 538.179688 C 1023.4375 538.796875 1023.246094 540.296875 1023.179688 541.574219 C 1022.871094 547.839844 1022.605469 554.355469 1025.050781 560.132812 C 1028.628906 568.585938 1037.875 575.6875 1035.9375 584.660156 C 1025.488281 579.804688 1020.054688 568.085938 1017.589844 556.832031 C 1015.125 545.574219 1014.710938 533.761719 1010.292969 523.121094 C 1006.933594 527.421875 999.878906 523.867188 996.808594 519.351562 C 993.902344 515.074219 992.109375 510.121094 989.289062 505.785156 C 986.46875 501.445312 982.144531 497.5625 976.976562 497.324219 C 971.558594 497.074219 966.859375 500.792969 962.722656 504.308594 C 959.324219 507.195312 955.835938 510.199219 953.847656 514.195312 C 950.957031 520.007812 951.714844 526.859375 951.574219 533.347656 C 951.425781 540.363281 949.9375 547.769531 945.15625 552.902344 C 940.375 558.039062 931.546875 559.828125 926.273438 555.199219 C 923.519531 552.785156 922.183594 549.171875 920.996094 545.707031 C 915.273438 529 910.503906 511.980469 906.71875 494.726562 C 905.832031 498.664062 902.375 503.738281 899.070312 501.421875 C 898.332031 500.796875 897.730469 500.023438 897.308594 499.152344 C 891.148438 488.710938 879.738281 482.445312 868.210938 478.691406 C 856.683594 474.9375 844.558594 473.183594 833.15625 469.058594 C 826.769531 466.742188 820.667969 463.703125 814.972656 460 C 812.015625 464.34375 811.679688 469.960938 814.097656 474.628906 C 816.625 479.105469 822.347656 481.695312 827.246094 480.132812 C 829.777344 479.324219 831.917969 477.566406 834.425781 476.699219 C 836.9375 475.828125 840.308594 476.257812 841.410156 478.675781 C 842.460938 480.992188 840.871094 483.792969 841.660156 486.210938 C 842.859375 489.894531 848.414062 490.179688 850.355469 493.53125 C 851.800781 496.023438 850.613281 499.335938 848.550781 501.347656 C 846.484375 503.359375 843.734375 504.464844 841.214844 505.863281 C 833.039062 510.410156 827.226562 518.167969 820.085938 524.207031 C 812.941406 530.242188 802.863281 534.648438 794.351562 530.777344 C 796.378906 520.5 784.140625 512.957031 781.886719 502.730469 C 781.148438 499.363281 781.53125 495.785156 780.472656 492.503906 C 778.941406 487.753906 774.726562 484.488281 771.269531 480.886719 C 762.796875 471.972656 758.289062 460.011719 758.765625 447.71875 C 758.953125 443.492188 759.726562 439.195312 758.765625 435.074219 C 757.800781 430.953125 754.390625 426.964844 750.164062 427.152344 C 740.507812 427.578125 728.34375 428.296875 723.277344 420.066406 C 721.46875 417.128906 720.683594 412.828125 723.296875 410.578125 C 725.140625 408.988281 727.863281 409.136719 730.285156 409.375 L 752.039062 411.515625 C 757.128906 412.015625 762.628906 412.429688 766.996094 409.769531 C 771.359375 407.109375 773.253906 400.050781 769.210938 396.917969 C 766.257812 394.632812 760.964844 394.757812 760.105469 391.121094 C 759.390625 388.09375 762.742188 384.65625 760.929688 382.128906 C 759.632812 380.3125 756.714844 380.816406 754.945312 382.175781 C 753.179688 383.535156 751.894531 385.527344 749.917969 386.554688 C 746.445312 388.363281 742.296875 386.644531 738.5625 385.472656 C 734.828125 384.304688 729.820312 384.207031 728.007812 387.675781 C 725.984375 391.554688 729.804688 396.636719 727.796875 400.527344 C 725.136719 405.664062 716.136719 402.738281 712.402344 407.160156 C 708.117188 412.234375 715.316406 419.796875 713.871094 426.277344 C 710.121094 428.136719 705.667969 427.886719 702.148438 425.621094 C 698.679688 423.261719 696.789062 419.1875 697.226562 415.015625 C 697.582031 412.101562 699.101562 409.125 698.085938 406.371094 C 697.261719 404.140625 695.023438 402.816406 692.945312 401.667969 L 671.804688 389.984375 C 669.84375 393.625 672.324219 398.140625 675.425781 400.875 C 678.53125 403.609375 682.417969 405.667969 684.457031 409.269531 C 687.132812 414.445312 685.316406 420.8125 680.3125 423.792969 C 679.699219 424.214844 678.933594 424.351562 678.214844 424.160156 C 677.535156 423.757812 677.042969 423.101562 676.855469 422.332031 C 673.125 412.785156 667.527344 403.375 658.570312 398.386719 C 649.617188 393.402344 636.753906 394.425781 630.882812 402.828125 C 629.488281 404.824219 628.550781 407.097656 627.335938 409.207031 C 620.882812 420.414062 607.042969 425.71875 594.117188 425.375 C 592.851562 425.441406 591.59375 425.148438 590.492188 424.523438 C 588.402344 423.078125 588.496094 420.015625 588.816406 417.496094 L 590.171875 406.808594 C 590.445312 404.660156 590.839844 402.289062 592.539062 400.949219 C 594.933594 399.058594 598.390625 400.25 601.441406 400.207031 C 606.171875 399.984375 610.261719 396.828125 611.675781 392.304688 C 612.933594 387.761719 611.570312 382.898438 608.136719 379.664062 C 606.742188 378.351562 604.863281 376.703125 605.601562 374.933594 C 606.199219 373.941406 607.203125 373.265625 608.347656 373.085938 C 613.824219 371.496094 619.613281 371.078125 625 369.199219 C 630.386719 367.324219 635.613281 363.480469 636.886719 357.921875 C 637.28125 356.21875 637.457031 354.152344 638.988281 353.308594 C 639.757812 352.984375 640.582031 352.816406 641.414062 352.8125 C 647.46875 351.953125 651.863281 346.609375 651.542969 340.503906 C 654.125 338.699219 657.742188 340.027344 660.238281 341.945312 C 662.738281 343.863281 664.941406 346.398438 667.980469 347.226562 C 673.644531 348.769531 679.117188 343.753906 684.988281 343.730469 C 687.457031 343.71875 690.011719 344.59375 692.335938 343.757812 C 694.6875 342.910156 696.09375 340.566406 697.902344 338.832031 C 699.707031 337.101562 702.878906 336.046875 704.546875 337.910156 L 703.125 327.386719 C 708.914062 328.851562 715.050781 327.742188 719.960938 324.34375 L 701.601562 318.140625 C 700.960938 317.980469 700.371094 317.664062 699.882812 317.222656 C 698.550781 315.785156 699.875 313.542969 700.960938 311.910156 C 703.558594 308 703.992188 301.5625 699.722656 299.617188 C 696.808594 298.289062 693.460938 299.882812 690.664062 301.441406 L 677.261719 308.914062 C 676.835938 311.460938 679.953125 312.90625 681.882812 314.621094 C 684.273438 316.746094 685.113281 320.121094 683.992188 323.117188 C 682.875 326.117188 680.03125 328.117188 676.832031 328.15625 C 678.617188 330.480469 679.253906 333.492188 678.554688 336.339844 L 669.539062 336.988281 C 668.527344 337.191406 667.472656 336.984375 666.613281 336.417969 C 665.648438 335.558594 665.78125 334.058594 665.554688 332.789062 C 665.015625 329.722656 662.015625 327.574219 658.949219 327.023438 C 655.886719 326.472656 652.753906 327.175781 649.71875 327.875 C 648.429688 328.339844 647.015625 328.304688 645.75 327.785156 C 645.023438 327.3125 644.472656 326.617188 644.179688 325.800781 C 642.847656 322.578125 644.09375 318.785156 646.230469 316.027344 C 648.363281 313.269531 651.289062 311.253906 653.917969 308.957031 C 660.195312 303.445312 664.8125 296.289062 667.238281 288.292969 C 672.203125 286.210938 677.34375 283.386719 682.304688 281.308594 C 689.957031 277.433594 698.539062 275.769531 707.085938 276.503906 L 723.898438 276.828125 C 728.875 276.921875 733.988281 277.042969 738.589844 278.941406 C 743.191406 280.839844 747.234375 284.941406 747.550781 289.910156 C 747.746094 291.054688 747.339844 292.214844 746.472656 292.988281 C 745.824219 293.34375 745.089844 293.507812 744.347656 293.46875 C 739.707031 293.628906 737.726562 294.785156 733.085938 294.949219 Z M 733.085938 294.949219 "/>
<path style=" stroke:none;fill-rule:nonzero;fill:rgb(24.705882%,23.921569%,33.72549%);fill-opacity:1;" d="M 599.097656 347.636719 C 600.433594 346.367188 600.953125 344.457031 600.4375 342.6875 C 597.175781 341.429688 593.488281 342.125 590.910156 344.488281 C 589.914062 345.496094 589.054688 346.628906 588.355469 347.859375 C 586.148438 351.464844 584.195312 355.769531 585.476562 359.796875 C 585.683594 360.6875 586.246094 361.453125 587.027344 361.921875 C 587.601562 362.152344 588.21875 362.25 588.835938 362.203125 C 591.269531 362.203125 593.699219 362.050781 596.117188 361.757812 C 597.597656 361.574219 599.320312 361.15625 599.894531 359.777344 C 600.648438 357.960938 598.824219 355.910156 599.355469 354.019531 C 599.707031 353.171875 600.238281 352.414062 600.910156 351.792969 C 601.585938 351.160156 601.925781 350.246094 601.824219 349.324219 C 601.613281 348.4375 600.253906 347.933594 599.765625 348.703125 "/>
<path style=" stroke:none;fill-rule:nonzero;fill:rgb(24.705882%,23.921569%,33.72549%);fill-opacity:1;" d="M 611.714844 331.273438 C 609.554688 330.777344 607.324219 330.640625 605.117188 330.859375 C 604.628906 330.847656 604.144531 330.957031 603.710938 331.179688 C 603.292969 331.492188 602.988281 331.933594 602.84375 332.433594 C 601.878906 335.539062 603.457031 338.863281 606.472656 340.074219 C 607.265625 340.253906 608.027344 340.558594 608.722656 340.976562 C 610.589844 342.425781 609.398438 345.382812 609.753906 347.71875 C 610.148438 350.339844 612.6875 352.542969 612.222656 355.152344 C 611.855469 357.207031 609.660156 358.835938 610.011719 360.894531 C 610.382812 363.054688 613.121094 363.699219 615.300781 363.875 C 616.566406 364.09375 617.867188 363.945312 619.046875 363.445312 C 620.230469 362.632812 621.074219 361.414062 621.414062 360.019531 C 622.304688 357.363281 622.679688 354.558594 622.519531 351.757812 C 622.507812 350.484375 622.1875 349.234375 621.585938 348.113281 C 620.929688 347.222656 620.199219 346.390625 619.410156 345.617188 C 615.230469 340.757812 619.628906 333.507812 611.714844 331.273438 Z M 611.714844 331.273438 "/>
<use xlink:href="#surface5" mask="url(#mask0)"/>
<use xlink:href="#surface8" mask="url(#mask1)"/>
<path style=" stroke:none;fill-rule:nonzero;fill:rgb(97.647059%,65.882353%,14.901961%);fill-opacity:1;" d="M 264.835938 363.960938 C 264.835938 371.707031 258.558594 377.984375 250.8125 377.984375 C 243.070312 377.984375 236.792969 371.707031 236.792969 363.960938 C 236.792969 356.21875 243.070312 349.9375 250.8125 349.9375 C 258.558594 349.9375 264.835938 356.21875 264.835938 363.960938 Z M 264.835938 363.960938 "/>
<path style=" stroke:none;fill-rule:nonzero;fill:rgb(97.647059%,65.882353%,14.901961%);fill-opacity:1;" d="M 391.515625 663.742188 C 391.515625 671.488281 385.238281 677.765625 377.496094 677.765625 C 369.75 677.765625 363.472656 671.488281 363.472656 663.742188 C 363.472656 656 369.75 649.722656 377.496094 649.722656 C 385.238281 649.722656 391.515625 656 391.515625 663.742188 Z M 391.515625 663.742188 "/>
<path style=" stroke:none;fill-rule:nonzero;fill:rgb(97.647059%,65.882353%,14.901961%);fill-opacity:1;" d="M 928.707031 362.027344 C 928.707031 369.769531 922.429688 376.050781 914.683594 376.050781 C 906.941406 376.050781 900.660156 369.769531 900.660156 362.027344 C 900.660156 354.28125 906.941406 348.003906 914.683594 348.003906 C 922.429688 348.003906 928.707031 354.28125 928.707031 362.027344 Z M 928.707031 362.027344 "/>
<path style=" stroke:none;fill-rule:nonzero;fill:rgb(97.647059%,65.882353%,14.901961%);fill-opacity:1;" d="M 1175.300781 712.09375 C 1175.300781 719.839844 1169.023438 726.117188 1161.277344 726.117188 C 1153.535156 726.117188 1147.257812 719.839844 1147.257812 712.09375 C 1147.257812 704.351562 1153.535156 698.074219 1161.277344 698.074219 C 1169.023438 698.074219 1175.300781 704.351562 1175.300781 712.09375 Z M 1175.300781 712.09375 "/>
<path style=" stroke:none;fill-rule:nonzero;fill:rgb(97.647059%,65.882353%,14.901961%);fill-opacity:1;" d="M 717.410156 563.171875 C 717.410156 570.914062 711.128906 577.191406 703.386719 577.191406 C 695.640625 577.191406 689.363281 570.914062 689.363281 563.171875 C 689.363281 555.425781 695.640625 549.148438 703.386719 549.148438 C 711.128906 549.148438 717.410156 555.425781 717.410156 563.171875 Z M 717.410156 563.171875 "/>
</g>
</svg>
